# xmcd
#
# Track frame offsets:
#	150
#	23612
#	43105
#	69439
#	84707
#	106676
#	127460
#	149164
#
# Disc length: 2287 seconds
#
# Revision: 0
# Processed by: cddbd v1.5.2PL0 Copyright (c) Steve Scherf et al.
# Submitted via: EasyCDDAExtractor 11.0.2.1
#
DISCID=7308ed08
DTITLE=Ganksta Gank - Me And My Killaz
DYEAR=1999
DGENRE=Rap
TTITLE0=Me And My Killaz (Feat. T'Doe Woods)
TTITLE1=In The Hood
TTITLE2=Murder Ain't No Game (Feat. Gank Move)
TTITLE3=Short Story
TTITLE4=Survive (Feat. Mr. Top Notch)
TTITLE5=Old Beef (Feat. T'Doe Woods)
TTITLE6=Way Down Low (Feat. T'Doe Woods)
TTITLE7=Come Out And Play
EXTD=
EXTT0=
EXTT1=
EXTT2=
EXTT3=
EXTT4=
EXTT5=
EXTT6=
EXTT7=
PLAYORDER=
